<?xml version='1.0' encoding='utf-8'?>
<svg xmlns="http://www.w3.org/2000/svg" width="227.262" height="80.0" viewBox="-16 -16 227.262 80"><title>c · Zaner ornamental model</title><desc>c. Clean vector study of C. P. Zaner, Lessons in Ornamental Penmanship, printed page 17. Source construction retained; paper texture removed.</desc><rect x="-16" y="-16" width="227.261564" height="80.0" fill="#fff" /><g transform="translate(-31.191503,77.000000) scale(0.100000,-0.100000)" fill="#20362d" stroke="none">
<path d="M2147 710 c-32 -33 -63 -60 -70 -60 -7 0 -25 -11 -41 -25 -16 -14 -33 -25 -38 -25 -4 0 -55 -22 -113 -50 -58 -27 -108 -50 -112 -50 -5 0 -21 -7 -38 -16 -35 -18 -127 -50 -170 -58 -16 -4 -41 -9 -55 -12 -14 -3 -43 -8 -65 -10 -22 -3 -56 -9 -75 -14 -19 -5 -55 -12 -80 -14 -25 -3 -58 -8 -75 -11 -41 -8 -60 6 -46 33 6 11 17 26 23 34 7 7 26 31 43 53 38 51 131 143 170 166 41 26 64 24 75 -6 11 -29 32 -32 55 -9 28 28 6 82 -35 85 -62 4 -105 -7 -205 -56 -266 -129 -486 -216 -690 -270 -111 -30 -134 -35 -165 -35 -36 0 -110 -19 -124 -31 -15 -13 14 -39 43 -39 55 0 402 91 491 129 25 11 70 29 100 41 78 30 87 34 159 69 35 17 65 30 67 28 3 -2 -8 -32 -24 -65 -37 -82 -37 -137 0 -165 24 -18 32 -19 80 -8 29 6 88 16 131 21 43 6 118 19 165 31 48 11 96 22 107 24 76 13 373 152 495 231 128 83 171 144 101 144 -20 0 -42 -16 -84 -60z" />
</g>
</svg>