<?xml version='1.0' encoding='utf-8'?>
<svg xmlns="http://www.w3.org/2000/svg" width="524.019" height="426.275" viewBox="-19.3762 -19.3762 524.019 426.275"><title>Capital Q</title><desc>Q. Clean vector study from E. A. Lupfer · Lessons in Ornamental Penmanship, printed page 58. Source construction retained; paper texture removed.</desc><rect x="-19.3761529" y="-19.3761529" width="524.0194238" height="426.2753638" fill="#fff" /><g transform="translate(-18.497241,403.861935) scale(0.100000,-0.100000)" fill="#20362d" stroke="none">
<path d="M3300 4029 c-186 -11 -270 -18 -320 -29 -90 -18 -125 -23 -140 -21 -15 3 -54 -8 -165 -45 -38 -13 -117 -35 -175 -49 -58 -14 -109 -30 -115 -36 -5 -5 -18 -9 -28 -9 -11 0 -34 -9 -51 -19 -17 -11 -62 -31 -101 -46 -78 -29 -296 -141 -359 -184 -23 -16 -59 -37 -81 -49 -22 -11 -51 -30 -65 -42 -14 -12 -38 -29 -55 -37 -16 -9 -35 -22 -43 -30 -8 -8 -27 -22 -41 -31 -78 -51 -211 -156 -305 -242 -39 -36 -91 -81 -115 -100 -55 -45 -259 -284 -319 -375 -50 -76 -132 -232 -132 -253 0 -7 -7 -23 -15 -35 -23 -36 -45 -146 -45 -232 1 -71 4 -85 28 -120 34 -49 144 -108 206 -110 70 -3 191 12 278 35 250 64 478 157 694 281 23 13 79 46 125 72 46 26 125 73 174 104 50 30 101 62 115 70 54 30 391 258 491 331 105 77 189 131 189 121 0 -11 -185 -193 -238 -234 -14 -11 -73 -62 -131 -114 -58 -51 -160 -136 -226 -189 -66 -53 -165 -135 -220 -182 -90 -77 -166 -138 -260 -210 -18 -14 -77 -59 -131 -101 -55 -41 -143 -106 -197 -145 -164 -115 -165 -116 -377 -283 -103 -81 -124 -99 -275 -236 -93 -85 -246 -236 -361 -356 -208 -220 -368 -549 -321 -661 34 -79 88 -93 209 -53 46 15 90 32 98 39 8 6 35 22 60 35 96 50 265 173 373 271 81 72 323 316 388 390 41 46 94 105 119 130 25 25 79 86 120 135 41 50 97 114 124 143 l50 53 36 -36 c42 -43 83 -73 215 -161 118 -79 304 -184 325 -184 9 0 20 -4 25 -9 6 -5 60 -28 120 -51 61 -23 122 -48 137 -56 14 -8 34 -14 44 -14 9 0 42 -9 73 -19 31 -11 81 -24 111 -30 134 -27 257 -48 285 -49 17 0 57 -2 90 -4 110 -8 397 9 515 31 218 40 406 103 615 207 61 30 115 54 121 54 6 0 46 28 89 63 42 34 90 68 106 76 16 8 31 22 34 32 3 10 35 41 70 70 36 29 67 60 70 69 3 9 18 26 33 37 31 23 103 138 133 215 11 28 28 57 37 64 14 10 17 34 19 146 3 154 -11 226 -60 314 -37 68 -169 209 -212 228 -16 8 -62 44 -102 80 -40 37 -80 66 -92 66 -11 0 -40 9 -63 19 -81 37 -143 59 -198 71 -30 6 -71 17 -90 23 -93 30 -427 53 -550 38 -196 -24 -404 -76 -570 -144 -99 -41 -352 -169 -389 -198 -14 -11 -69 -48 -121 -82 -52 -34 -97 -64 -100 -67 -3 -3 -41 -35 -85 -70 -86 -70 -583 -561 -629 -622 -33 -44 -49 -47 -72 -13 -20 30 -44 33 -44 5 0 -11 4 -20 10 -20 5 0 12 -16 16 -35 6 -34 3 -40 -57 -104 -35 -37 -127 -139 -204 -226 -219 -249 -221 -252 -378 -407 -294 -294 -537 -452 -729 -474 -56 -6 -58 -6 -58 17 0 49 93 163 275 339 66 64 214 207 330 317 116 111 327 322 470 469 515 529 998 1004 1185 1164 36 31 112 96 170 145 184 157 392 342 544 486 45 42 99 92 121 111 129 114 151 134 157 144 4 6 47 44 95 84 49 40 102 87 120 104 17 17 39 37 48 44 17 15 17 43 -1 49 -6 2 -42 -25 -80 -59 -38 -35 -113 -99 -168 -143 -54 -44 -124 -102 -156 -130 -74 -65 -211 -172 -275 -215 -27 -18 -64 -45 -81 -59 -36 -29 -74 -58 -144 -110 -27 -20 -85 -63 -129 -96 -44 -33 -104 -73 -132 -90 -28 -16 -68 -43 -88 -60 -20 -16 -45 -35 -56 -42 -109 -65 -181 -111 -302 -190 -77 -51 -144 -93 -147 -93 -3 0 -46 -25 -97 -55 -50 -30 -93 -55 -94 -55 -1 0 -45 -24 -96 -53 -154 -86 -397 -185 -500 -202 -23 -4 -58 -14 -78 -22 -23 -10 -83 -17 -167 -21 -107 -4 -140 -2 -183 13 -108 35 -138 92 -106 202 17 59 101 209 132 234 9 8 34 37 56 64 90 114 317 334 407 395 29 19 62 45 73 57 12 12 100 73 194 135 95 62 187 123 205 135 105 69 549 301 744 388 202 91 562 218 661 235 32 5 105 18 162 29 57 11 177 27 267 37 261 29 422 7 669 -89 44 -17 96 -41 115 -54 96 -63 111 -75 116 -88 4 -8 22 -24 41 -36 28 -18 39 -20 59 -10 40 18 30 49 -35 111 -40 39 -92 73 -172 113 -63 32 -120 57 -127 57 -7 0 -37 11 -65 24 -29 13 -83 29 -122 35 -38 7 -92 19 -120 27 -42 13 -427 37 -510 32 -11 -1 -76 -5 -145 -9z m678 -1419 c68 -5 138 -14 155 -19 18 -6 58 -18 89 -26 141 -36 314 -115 423 -193 204 -145 307 -329 292 -522 -10 -119 -70 -276 -151 -389 -41 -58 -154 -179 -182 -194 -11 -7 -49 -34 -83 -62 -35 -27 -80 -59 -101 -70 -21 -11 -68 -37 -104 -58 -75 -43 -283 -137 -304 -137 -8 0 -28 -6 -45 -14 -39 -16 -129 -49 -177 -64 -85 -27 -259 -45 -420 -44 -150 0 -199 5 -425 41 -27 5 -90 21 -140 36 -98 30 -185 55 -285 84 -158 45 -490 210 -615 306 -65 49 -135 117 -135 131 0 13 22 36 302 321 141 144 237 233 344 321 81 67 309 234 354 260 155 90 422 208 532 237 179 45 416 78 508 69 25 -2 100 -9 168 -14z" />
</g>
</svg>