<?xml version='1.0' encoding='utf-8'?>
<svg xmlns="http://www.w3.org/2000/svg" width="622.376" height="432.85" viewBox="-19.675 -19.675 622.376 432.85"><title>Capital J</title><desc>J. Clean vector study from E. A. Lupfer · Lessons in Ornamental Penmanship, printed page 57. Source construction retained; paper texture removed.</desc><rect x="-19.675017450000002" y="-19.675017450000002" width="622.3758209" height="432.85038390000005" fill="#fff" /><g transform="translate(-25.733849,407.582402) scale(0.100000,-0.100000)" fill="#20362d" stroke="none">
<path d="M5208 4075 c-5 -5 -165 -18 -202 -16 -16 0 -36 -5 -43 -11 -13 -11 -68 -25 -133 -35 -19 -2 -49 -11 -67 -19 -17 -8 -35 -14 -40 -14 -4 0 -30 -11 -58 -25 -27 -13 -58 -25 -68 -25 -23 0 -187 -79 -187 -90 0 -4 -17 -16 -37 -25 -80 -38 -249 -161 -347 -255 -154 -145 -261 -270 -340 -395 -58 -92 -138 -263 -166 -355 -17 -58 -36 -115 -41 -128 -32 -79 -48 -373 -28 -510 16 -108 11 -112 -67 -50 -36 29 -73 58 -82 63 -9 6 -44 28 -78 51 -34 23 -109 64 -167 92 -58 28 -108 56 -112 61 -3 6 -25 15 -48 21 -23 6 -55 17 -72 25 -16 7 -43 17 -60 21 -16 3 -37 12 -45 19 -14 12 -72 30 -185 57 -307 74 -816 73 -1070 -3 -331 -99 -522 -188 -702 -329 -97 -76 -272 -261 -332 -350 -59 -89 -139 -244 -164 -318 -12 -33 -12 -49 -4 -73 14 -35 29 -33 38 7 16 72 39 143 59 184 49 100 61 120 75 120 9 0 15 9 15 21 0 22 66 109 157 206 156 167 452 360 618 404 28 7 61 21 75 31 14 10 44 21 65 24 22 3 58 12 79 21 148 55 543 88 764 64 61 -7 126 -14 144 -17 85 -10 193 -36 274 -64 49 -17 105 -36 124 -42 19 -5 40 -14 45 -18 6 -4 35 -17 65 -28 134 -49 338 -162 460 -253 69 -51 136 -98 149 -105 13 -7 25 -23 27 -36 9 -86 116 -276 175 -314 56 -35 73 -27 67 34 -6 58 -56 144 -131 227 -96 106 -119 186 -114 400 4 140 16 230 43 316 8 26 14 54 14 64 0 26 66 199 113 295 129 266 343 506 619 691 48 33 89 59 92 59 3 0 51 25 107 55 56 31 131 66 168 79 36 13 91 33 121 44 111 40 275 68 460 78 110 6 141 1 137 -24 -1 -9 3 -18 8 -19 6 -2 10 3 10 10 0 36 139 24 264 -23 103 -38 115 -44 171 -89 107 -84 155 -154 175 -252 19 -90 11 -164 -28 -265 -32 -83 -120 -233 -164 -279 -10 -11 -47 -56 -82 -100 -34 -44 -104 -125 -154 -180 -112 -122 -547 -558 -712 -713 -66 -63 -127 -125 -136 -140 -8 -15 -24 -28 -35 -30 -11 -2 -42 -24 -70 -50 -27 -26 -84 -72 -125 -104 -41 -31 -81 -64 -89 -73 -22 -26 -61 -41 -111 -43 -42 -1 -151 -13 -254 -27 -186 -26 -609 -126 -740 -176 -44 -17 -114 -43 -155 -58 -41 -15 -96 -38 -122 -49 -26 -12 -52 -22 -58 -22 -6 0 -28 -11 -48 -25 -20 -14 -42 -25 -48 -25 -15 0 -126 -55 -176 -86 -21 -13 -42 -24 -48 -24 -5 0 -31 -15 -57 -33 -27 -19 -55 -37 -63 -41 -8 -3 -34 -19 -56 -34 -23 -15 -69 -43 -101 -63 -288 -176 -597 -473 -665 -638 -20 -50 -20 -57 -7 -94 10 -29 24 -45 51 -59 100 -52 356 -49 629 7 442 90 747 240 1193 585 18 14 55 46 82 72 27 25 69 63 94 83 25 21 63 56 85 79 22 22 98 93 168 156 70 63 198 184 285 268 86 85 167 158 179 162 27 11 338 1 371 -11 13 -5 46 -9 74 -9 68 0 217 -28 245 -46 12 -8 40 -14 61 -14 24 0 61 -11 95 -30 66 -35 97 -39 97 -11 0 12 -13 24 -37 34 -21 9 -75 31 -119 50 -45 19 -92 37 -105 40 -81 20 -260 38 -424 43 -104 3 -196 8 -204 10 -8 3 15 30 60 72 40 37 98 92 129 122 31 30 91 86 133 124 42 38 147 141 234 229 87 88 198 198 248 246 159 153 255 249 255 255 0 8 25 36 74 83 21 21 55 61 76 88 21 28 57 71 81 96 24 26 55 65 69 88 14 23 45 70 70 105 70 97 109 183 126 277 27 147 27 154 9 173 -10 9 -24 38 -31 64 -21 69 -114 201 -141 202 -7 0 -20 11 -29 25 -9 14 -42 37 -73 51 -31 14 -77 36 -104 50 -26 13 -57 24 -70 24 -12 0 -39 9 -60 20 -21 11 -42 18 -47 15 -5 -3 -49 -1 -97 4 -117 13 -211 20 -215 16z m-1564 -2274 c55 -93 62 -133 15 -82 -29 32 -99 162 -99 184 0 21 40 -27 84 -102z m621 -220 c3 -6 -39 -43 -92 -83 -54 -40 -102 -76 -108 -80 -5 -4 -35 -26 -65 -48 -30 -21 -70 -52 -89 -67 -19 -15 -55 -42 -80 -58 -25 -17 -68 -47 -96 -66 -218 -155 -379 -259 -730 -476 -11 -7 -49 -26 -85 -44 -36 -18 -74 -40 -85 -49 -32 -28 -521 -279 -575 -295 -14 -4 -45 -16 -70 -27 -25 -11 -54 -24 -65 -29 -72 -31 -251 -69 -324 -69 -46 0 -81 33 -81 76 0 136 270 413 635 651 22 15 65 43 96 64 31 21 67 43 80 49 13 6 62 33 109 60 232 135 595 286 850 353 280 74 371 93 555 118 44 6 103 14 130 18 72 12 83 12 90 2z" />
</g>
</svg>