<?xml version='1.0' encoding='utf-8'?>
<svg xmlns="http://www.w3.org/2000/svg" viewBox="-8 -8 585 87" width="585" height="87"><rect x="-8" y="-8" width="585" height="87" fill="white" /><g stroke="#20362d" fill="none" stroke-width=".7" stroke-linecap="round" stroke-linejoin="round"><path d="M 223.361,15.317 C 203.232,14.711 195.058,30.270 183.073,44.892 C 177.151,52.117 170.298,59.112 162.728,56.836 C 160.923,56.293 159.079,55.224 157.835,53.713 C 156.746,52.391 156.118,50.730 155.949,49.073 C 155.583,45.484 157.373,41.912 159.414,38.355 C 168.738,22.103 183.293,6.173 201.650,6.815 C 206.633,6.989 211.898,8.385 213.631,12.268 C 215.012,15.363 214.150,20.040 212.273,23.822 C 208.187,32.059 199.295,36.058 191.333,34.347" /><path d="M 76.324,15.331 C 65.220,15.061 54.335,23.355 49.323,32.996" /><path d="M 462.694,16.311 C 442.753,16.434 435.090,31.754 421.667,46.101 C 415.161,53.055 407.302,59.780 401.103,56.355 C 398.160,54.728 395.592,50.814 395.417,47.027 C 395.243,43.258 397.443,39.615 399.827,36.047 C 410.031,20.776 423.616,6.884 441.348,7.271 C 445.420,7.360 449.712,8.202 452.042,10.813 C 454.348,13.395 454.735,17.709 453.534,21.586 C 450.965,29.876 441.135,36.172 433.342,35.329" /><path d="M 143.337,22.992 C 136.288,26.771 134.318,32.028 129.620,37.582 C 125.082,42.948 117.999,48.593 117.388,53.247 C 117.244,54.348 117.462,55.394 118.151,55.982 C 118.784,56.522 119.814,56.675 121.016,56.474 C 123.693,56.025 127.224,53.816 130.250,51.914 C 136.425,48.032 140.502,45.428 146.669,41.329" /><path d="M 534.667,25.007 C 526.584,36.547 517.343,49.369 503.843,54.614 C 500.634,55.861 497.184,56.680 496.763,55.257 C 496.318,53.754 499.253,49.749 502.437,46.821 C 508.246,41.477 514.883,39.718 521.003,41.321" /><path d="M 185.325,32.004 C 179.896,33.541 171.281,37.948 167.458,44.396 C 163.827,50.519 164.518,58.482 169.157,60.408 C 173.748,62.314 182.205,58.310 187.020,53.039 C 191.604,48.021 192.886,41.853 193.336,35.338" /><path d="M 432.007,33.332 C 434.810,38.897 428.783,44.324 426.327,50.191 C 425.150,53.003 424.793,55.916 426.373,56.808 C 427.761,57.591 430.645,56.814 433.335,55.899 C 439.791,53.701 445.126,50.707 450.121,46.462 C 452.591,44.363 454.979,41.957 453.762,41.606 C 452.603,41.271 448.172,42.801 448.324,47.005" /><path d="M 257.667,36.000 C 252.332,41.190 251.769,48.356 248.328,54.331" /><path d="M 350.999,36.666 C 345.881,42.644 345.847,49.196 340.994,55.331" /><path d="M 371.665,37.000 C 366.865,42.183 365.736,49.075 361.662,54.998" /><path d="M 564.330,38.335 C 554.260,44.017 544.385,54.443 532.952,56.411 C 530.278,56.871 527.519,56.869 527.798,55.093 C 527.942,54.178 528.892,52.793 529.980,51.554 C 530.990,50.403 532.120,49.379 533.210,48.294 C 535.660,45.854 537.910,43.108 538.905,43.331 C 539.781,43.527 539.682,46.030 535.330,47.006" /><path d="M 387.660,39.676 C 381.867,44.492 374.893,50.164 367.538,53.740 C 361.149,56.847 354.472,58.373 349.645,54.028" /><path d="M 96.667,40.674 C 90.552,45.623 84.491,49.415 77.125,53.037 C 70.483,56.302 62.781,59.429 68.003,49.325" /><path d="M 125.674,40.984 C 115.218,39.547 108.991,45.578 100.163,50.593 C 95.688,53.135 90.545,55.417 87.389,55.546 C 86.704,55.574 86.112,55.500 85.841,55.181 C 85.541,54.828 85.633,54.175 86.077,53.280 C 87.021,51.378 89.556,48.387 90.006,46.333" /><path d="M 218.336,41.668 C 210.795,49.393 200.614,52.705 191.336,57.005" /><path d="M 232.999,41.671 C 227.726,46.441 221.539,50.613 215.039,54.107 C 213.470,54.950 211.884,55.753 210.657,56.093 C 209.535,56.405 208.715,56.329 208.391,55.758 C 207.745,54.616 209.087,51.493 211.346,47.994" /><path d="M 472.335,42.004 C 466.210,45.440 461.952,50.043 455.231,53.771 C 449.258,57.084 441.341,59.705 440.647,53.345" /><path d="M 346.657,42.666 C 341.029,45.276 335.568,50.248 329.133,53.881 C 323.512,57.055 317.147,59.207 314.976,53.351" /><path d="M 367.332,42.655 C 359.960,46.475 354.504,50.656 347.353,54.189 C 340.715,57.469 332.617,60.191 328.323,54.685" /><path d="M 252.665,42.993 C 245.128,45.447 240.346,51.141 232.846,54.654 C 229.404,56.266 225.389,57.418 223.720,56.374 C 222.059,55.335 222.719,52.121 225.683,48.328" /><path d="M 57.339,45.670 C 56.285,47.364 51.891,52.391 51.504,54.598 C 51.140,56.671 54.313,56.255 57.334,55.137 C 60.589,53.932 63.669,51.912 67.065,49.509 C 70.543,47.049 74.354,44.188 74.096,42.351 C 73.988,41.583 73.169,40.994 71.926,40.832 C 70.648,40.665 68.923,40.949 67.287,41.342 C 63.705,42.202 60.553,43.584 57.543,44.927 C 51.485,47.631 45.999,50.180 39.668,54.008" /><path d="M 484.659,46.337 C 485.195,43.655 487.290,42.302 488.423,42.072 C 489.480,41.858 489.701,42.619 489.227,43.518 C 488.250,45.373 484.313,47.810 480.845,49.763 C 474.154,53.531 469.209,55.494 461.659,57.662" /><path d="M 323.001,46.668 C 322.201,44.795 325.437,41.965 327.005,41.369 C 328.412,40.834 328.475,42.097 327.842,43.308 C 326.460,45.952 321.757,48.348 318.091,50.456 C 314.541,52.499 311.964,54.271 307.868,55.479 C 304.083,56.595 299.002,57.230 299.076,55.179 C 299.161,52.815 306.094,46.885 307.353,44.191 C 308.484,41.771 305.038,41.962 301.622,43.446 C 297.936,45.048 294.284,48.157 290.841,50.222 C 287.340,52.321 284.056,53.342 281.001,57.672" /><path d="M 119.987,47.998 C 116.832,48.526 111.203,52.942 106.779,54.955 C 102.762,56.784 99.740,56.632 102.331,49.992" /><path d="M 514.677,48.997 C 513.090,51.460 511.734,54.034 511.917,55.594 C 512.077,56.953 513.403,57.544 515.217,57.343 C 519.065,56.918 525.109,52.935 528.327,52.666" /><path d="M 498.991,49.669 C 492.223,48.863 478.875,63.885 476.318,53.008" /><path d="M 288.329,50.664 C 289.511,47.984 292.964,42.844 292.191,41.655 C 291.430,40.484 286.577,43.138 283.080,45.222 C 279.122,47.580 276.900,49.207 273.038,51.776 C 269.507,54.124 264.604,57.260 262.697,56.752 C 261.707,56.489 261.524,55.244 262.169,53.524 C 262.828,51.766 264.351,49.513 264.508,48.556 C 264.806,46.753 260.245,49.567 256.285,51.616 C 248.852,55.465 243.539,56.620 235.994,57.338" /><path d="M 429.000,52.000 C 429.017,53.871 426.921,56.475 425.333,54.000" /><path d="M 68.334,16.004 C 68.461,8.042 60.396,6.389 53.774,7.010 C 46.950,7.649 41.660,10.703 36.375,14.805 C 25.498,23.249 14.648,36.133 15.783,49.112 C 16.052,52.183 16.992,55.259 19.430,56.646 C 21.705,57.941 25.287,57.764 28.207,56.582 C 35.046,53.812 38.259,45.526 42.480,40.376 C 46.342,35.664 51.048,33.576 56.780,30.870 C 62.741,28.057 69.810,24.576 68.328,15.990" /></g><g transform="scale(0.3333333333333333)"><g transform="translate(0.000000,213.000000) scale(0.100000,-0.100000)" fill="#20362d" stroke="none">
<path d="M4184 1410 c-21 -8 -156 -180 -244 -310 -24 -35 -72 -97 -107 -137 -35 -40 -63 -79 -63 -87 0 -8 -15 -22 -33 -31 -34 -16 -97 -89 -97 -112 0 -38 71 4 115 68 16 23 43 56 60 73 50 52 192 217 242 283 78 100 159 197 176 212 18 14 23 41 8 41 -5 0 -15 2 -23 4 -7 3 -22 1 -34 -4z" />
<path d="M16037 1390 c-14 -11 -43 -49 -63 -83 -21 -34 -54 -81 -75 -103 -20 -23 -45 -57 -55 -75 -21 -42 -70 -100 -196 -235 -86 -91 -119 -144 -90 -144 14 0 125 114 152 157 15 23 40 53 56 67 17 13 38 43 48 64 10 22 28 44 40 50 12 5 55 54 96 108 41 53 94 117 117 140 61 61 35 105 -30 54z" />
<path d="M2237 836 c-31 -33 -35 -51 -9 -37 27 14 45 38 40 53 -3 8 -14 3 -31 -16z" />
<path d="M8097 842 c-21 -23 -22 -42 -3 -42 14 0 46 36 46 52 0 15 -27 8 -43 -10z" />
<path d="M1206 803 c-65 -100 -295 -311 -398 -365 -69 -36 -15 -35 78 1 134 52 253 161 319 291 10 19 26 46 36 59 11 13 19 30 19 37 0 27 -30 14 -54 -23z" />
<path d="M5498 775 c-13 -18 -32 -38 -43 -44 -11 -5 -68 -52 -128 -105 -99 -87 -256 -190 -324 -210 -71 -22 -5 -33 72 -12 135 35 404 244 405 312 0 6 14 28 30 49 33 42 35 45 20 45 -5 0 -20 -16 -32 -35z" />
<path d="M12654 748 c-105 -109 -310 -259 -422 -310 -74 -34 -74 -55 0 -44 116 17 398 217 398 282 0 7 18 34 40 59 22 25 40 48 40 51 0 13 -20 -1 -56 -38z" />
<path d="M15083 733 c-7 -2 -13 -9 -13 -14 0 -14 26 -10 40 6 13 16 0 20 -27 8z" />
<path d="M13828 619 c-10 -6 -22 -19 -28 -29 -17 -31 16 -26 36 5 19 29 16 38 -8 24z" />
<path d="M7083 563 c-20 -7 -15 -33 5 -33 19 0 42 18 42 32 0 9 -27 9 -47 1z" />
</g>
</g><ellipse cx="109.5" cy="24.5" rx="1.15" ry=".62" fill="#20362d" transform="rotate(-25 109.5 24.5)" /></svg>