<?xml version='1.0' encoding='utf-8'?>
<svg xmlns="http://www.w3.org/2000/svg" viewBox="-8 -8 426 159" width="426" height="159"><title>A name with a consistent design system</title><desc>Clean centerline reconstruction from original Compendium scan, physical page 98, Plate 27. Source-shaped curves are spline-smoothed; hairlines standardized; source swells and punctuation retained.</desc><rect x="-8" y="-8" width="426" height="159" fill="white" /><g stroke="#20362d" fill="none" stroke-width=".7" stroke-linecap="round" stroke-linejoin="round"><path d="M 155.666,65.998 C 150.012,68.273 144.516,71.147 139.636,75.234 C 134.567,79.480 130.163,85.033 125.010,88.325 C 123.805,89.096 122.558,89.742 121.070,90.538 C 119.582,91.334 117.852,92.279 116.969,91.997 C 116.061,91.707 116.049,90.120 116.755,88.752 C 117.473,87.362 118.934,86.199 120.290,84.996 C 121.698,83.746 122.994,82.452 123.635,80.917 C 124.192,79.584 124.256,78.068 123.531,77.727 C 122.762,77.365 121.105,78.326 119.697,79.232 C 118.345,80.102 117.221,80.923 116.116,81.831 C 111.292,85.798 106.817,91.444 100.602,92.991 C 98.016,93.634 95.129,93.568 92.836,92.481 C 92.102,92.133 91.430,91.681 90.724,91.290 C 89.140,90.413 87.388,89.845 85.791,89.037 C 84.603,88.435 83.500,87.701 82.354,86.993 C 73.481,81.513 61.967,77.597 50.997,80.932 C 49.387,81.422 47.789,82.067 47.176,83.277 C 46.580,84.455 46.916,86.167 47.860,87.439 C 48.831,88.746 50.443,89.588 51.961,90.211 C 53.215,90.725 54.404,91.089 55.636,91.422 C 60.451,92.725 65.913,93.561 71.244,93.599 C 82.844,93.682 93.823,89.984 102.273,82.644 C 107.132,78.423 111.154,72.998 115.069,67.752 C 119.031,62.442 122.883,57.316 127.321,52.477 C 135.825,43.203 146.481,34.983 158.138,31.090 C 163.118,29.426 168.282,28.553 173.850,28.135 C 177.087,27.892 180.460,27.804 183.797,28.295 C 185.139,28.493 186.475,28.785 187.639,28.636 C 188.867,28.480 189.903,27.833 190.894,27.061 C 193.391,25.118 195.604,22.381 198.193,20.139 C 200.632,18.025 203.406,16.352 206.154,14.852 C 211.173,12.111 216.110,9.946 221.541,8.314 C 231.338,5.371 242.745,4.163 252.936,6.318 C 258.714,7.540 264.100,9.843 268.728,13.673 C 271.357,15.849 273.741,18.517 275.094,21.633 C 276.141,24.043 276.571,26.721 276.534,29.313 C 276.451,35.082 274.055,40.422 270.603,45.010 C 266.709,50.186 261.472,54.404 255.959,57.846 C 246.372,63.831 235.953,67.471 224.676,68.934 C 214.396,70.268 203.404,69.794 193.390,67.480 C 181.897,64.824 171.693,59.746 162.002,52.660" /><path d="M 188.004,28.668 C 186.472,31.973 184.221,34.980 182.229,38.095 C 180.307,41.100 178.625,44.205 177.004,47.335" /><path d="M 193.665,29.004 C 197.863,30.462 202.118,31.780 206.167,33.596 C 210.278,35.439 214.177,37.795 217.999,40.336" /><path d="M 212.333,30.999 C 211.681,31.290 211.034,31.738 210.389,32.176 C 209.760,32.603 209.134,33.020 208.538,33.370 C 207.578,33.935 206.699,34.323 205.932,35.064 C 205.484,35.496 205.074,36.048 204.612,36.578 C 202.610,38.880 199.630,40.780 198.000,43.333" /><path d="M 260.335,34.671 C 256.400,36.205 252.460,37.729 248.712,39.786 C 244.677,42.000 240.865,44.831 237.395,47.935 C 233.846,51.108 230.655,54.566 227.532,58.182 C 224.677,61.486 221.880,64.923 221.328,69.331" /><path d="M 340.333,34.666 C 339.681,35.087 339.054,35.533 338.443,35.981 C 337.726,36.507 337.029,37.036 336.339,37.545 C 335.276,38.330 334.228,39.067 333.216,39.901 C 330.903,41.806 328.780,44.215 326.333,46.667" /><path d="M 348.335,43.333 C 342.109,39.980 336.079,39.038 329.222,38.546 C 324.154,38.183 318.635,38.066 313.401,38.465 C 301.487,39.374 291.052,42.959 281.277,48.788 C 269.818,55.620 259.264,65.535 251.171,76.284 C 249.210,78.890 247.393,81.544 245.708,84.407 C 244.899,85.782 244.121,87.204 243.169,88.211 C 242.193,89.242 241.035,89.836 239.704,90.020 C 239.145,90.098 238.556,90.102 237.957,90.069 C 232.700,89.777 226.702,86.547 222.002,84.000" /><path d="M 292.334,59.999 C 285.621,63.957 280.282,69.197 274.428,73.689 C 271.494,75.940 268.430,78.003 265.423,80.306 C 262.533,82.520 259.697,84.956 256.400,86.432 C 253.321,87.810 249.841,88.352 246.467,88.974 C 244.982,89.247 243.517,89.536 242.328,90.236 C 240.901,91.075 239.872,92.507 238.798,93.936 C 234.132,100.145 228.607,106.307 222.299,111.004 C 211.421,119.104 198.214,122.843 184.276,123.510 C 171.272,124.133 157.631,122.082 146.338,118.000" /><path d="M 125.330,64.662 C 108.496,53.438 85.568,49.595 64.480,52.753 C 53.265,54.433 42.570,58.093 33.717,65.141 C 28.897,68.977 24.623,73.817 22.913,79.643 C 21.486,84.502 21.843,90.047 23.963,94.717 C 26.595,100.515 31.946,104.964 37.401,108.284 C 42.258,111.241 47.198,113.304 52.569,114.765 C 62.155,117.373 73.116,118.068 83.289,116.680 C 94.778,115.114 105.261,110.893 113.870,103.297 C 118.635,99.093 122.825,93.856 127.912,90.375 C 130.386,88.683 133.072,87.406 135.874,85.868 C 138.182,84.601 140.569,83.158 140.670,86.999" /><path d="M 217.003,70.001 C 216.513,74.306 213.484,77.384 210.313,80.379 C 207.057,83.455 203.651,86.444 200.079,88.432 C 198.431,89.350 196.746,90.054 194.652,90.684 C 192.853,91.226 190.750,91.713 189.954,90.830 C 189.480,90.305 189.468,89.295 190.055,88.384 C 190.667,87.433 191.930,86.588 192.325,85.770 C 192.687,85.019 192.317,84.291 191.512,84.162 C 190.757,84.042 189.621,84.447 189.000,85.335" /><path d="M 273.337,75.002 C 271.907,78.931 269.308,82.343 266.738,85.747 C 264.100,89.240 261.492,92.725 258.740,96.312 C 253.508,103.133 247.754,110.325 239.333,110.342" /><path d="M 276.665,88.665 C 277.487,85.663 281.833,83.628 282.959,80.197 C 283.430,78.761 283.338,77.081 282.465,76.431 C 281.659,75.831 280.188,76.110 278.894,76.765 C 278.100,77.167 277.372,77.711 276.674,78.272 C 271.081,82.765 267.326,88.371 266.331,94.999" /><path d="M 295.667,79.335 C 293.770,81.417 290.947,83.457 288.668,85.340 C 288.034,85.864 287.443,86.375 286.789,86.741 C 286.318,87.005 285.814,87.193 285.274,87.353 C 284.271,87.650 283.144,87.852 282.042,88.118 C 280.795,88.418 279.581,88.799 278.376,88.878 C 277.270,88.950 276.171,88.768 275.073,88.923 C 272.779,89.247 270.488,91.044 268.000,90.001" /><path d="M 326.000,79.666 C 324.933,81.744 322.896,81.749 321.340,82.724 C 319.800,83.690 318.732,85.606 317.147,86.321 C 316.515,86.605 315.801,86.699 315.149,86.940 C 314.435,87.204 313.794,87.645 312.992,87.932 C 311.499,88.468 309.444,88.474 309.234,87.410 C 308.999,86.222 311.063,83.699 310.524,83.037 C 310.258,82.710 309.361,82.835 308.563,83.160 C 307.825,83.461 307.171,83.934 306.504,84.134 C 305.822,84.339 305.125,84.258 304.517,84.442 C 303.888,84.632 303.354,85.106 302.765,85.635 C 301.479,86.791 299.936,88.208 299.332,89.666" /><path d="M 334.000,81.000 C 331.514,82.536 328.737,84.423 327.000,87.000" /><path d="M 293.339,111.331 C 307.320,118.162 324.450,120.483 341.226,119.889 C 349.480,119.597 357.648,118.600 365.329,116.567 C 373.995,114.274 382.041,110.662 388.517,104.359 C 391.824,101.141 394.722,97.221 395.385,92.586 C 395.670,90.597 395.543,88.476 394.935,86.577 C 394.233,84.386 392.891,82.490 391.295,80.906 C 385.339,74.990 375.851,73.407 367.382,74.509 C 363.191,75.054 359.250,76.257 355.400,77.809 C 351.392,79.425 347.484,81.420 343.528,82.416 C 341.471,82.933 339.402,83.180 337.381,84.098 C 335.284,85.051 333.239,86.727 331.206,87.385 C 329.435,87.958 327.674,87.758 325.861,87.630 C 324.102,87.506 322.296,87.448 320.333,88.668" /><path d="M 342.333,83.333 C 341.784,85.001 340.315,86.783 338.667,87.667" /><path d="M 304.668,84.001 C 304.755,81.164 302.779,81.617 301.091,82.414 C 299.204,83.305 297.678,84.626 296.007,85.744 C 294.370,86.838 292.594,87.738 290.675,88.541 C 288.978,89.251 287.171,89.886 286.999,87.334" /><path d="M 147.001,88.667 C 143.455,83.373 138.183,88.931 135.001,92.333" /><path d="M 142.667,92.334 C 145.090,91.986 146.384,89.183 148.312,87.870 C 149.243,87.235 150.321,86.948 151.534,86.446 C 152.642,85.987 153.863,85.348 154.784,85.424 C 155.252,85.463 155.643,85.686 155.794,86.039 C 155.957,86.418 155.842,86.946 155.502,87.478 C 154.751,88.656 152.899,89.853 152.776,90.858 C 152.672,91.701 153.786,92.410 154.846,92.302 C 155.929,92.192 156.954,91.229 158.033,90.658 C 159.128,90.078 160.277,89.902 161.303,89.505 C 162.481,89.050 163.496,88.305 164.610,87.469 C 166.573,85.997 168.843,84.245 171.060,84.401 C 172.117,84.475 173.161,84.983 173.192,85.809 C 173.231,86.856 171.641,88.415 170.232,89.253 C 167.986,90.589 166.204,90.089 163.999,91.667" /><path d="M 169.999,89.667 C 170.847,92.347 173.373,90.910 175.322,89.503 C 177.368,88.026 178.777,86.582 181.005,85.347 C 182.025,84.782 183.217,84.261 183.923,84.585 C 184.588,84.890 184.823,85.947 184.501,86.844 C 184.105,87.950 182.865,88.815 181.847,89.611 C 180.985,90.286 180.283,90.911 179.334,91.334" /></g><g transform="scale(0.3333333333333333)"><g transform="translate(0.000000,429.000000) scale(0.100000,-0.100000)" fill="#20362d" stroke="none">
<path d="M7285 4131 l-60 -6 70 -7 c39 -5 89 -8 113 -8 24 0 52 -5 62 -10 38 -20 147 -26 131 -7 -8 10 -28 17 -48 17 -19 0 -42 4 -51 9 -24 12 -146 19 -217 12z" />
<path d="M5643 3443 c-11 -4 -5 -31 12 -51 7 -9 65 30 65 43 0 15 -49 20 -77 8z" />
<path d="M5583 3325 c-3 -9 -3 -18 0 -21 9 -9 27 6 27 22 0 19 -19 18 -27 -1z" />
<path d="M4637 3323 c-14 -13 -6 -24 15 -21 27 4 36 28 11 28 -11 0 -23 -3 -26 -7z" />
<path d="M6287 3317 c-2 -6 -22 -18 -43 -26 -22 -8 -57 -31 -79 -53 -22 -21 -60 -55 -84 -76 -159 -135 -196 -183 -151 -197 17 -5 43 16 139 112 65 65 130 127 144 138 36 26 117 103 117 110 0 11 -38 4 -43 -8z" />
<path d="M10040 3149 c-67 -38 -283 -253 -278 -277 6 -34 53 -26 83 15 44 58 215 223 231 223 8 0 14 6 14 14 0 7 7 19 15 26 47 39 4 38 -65 -1z" />
<path d="M9558 3133 c17 -2 47 -2 65 0 17 2 3 4 -33 4 -36 0 -50 -2 -32 -4z" />
<path d="M9830 3129 c32 -4 59 -4 65 2 5 5 -16 9 -55 8 l-65 -1 55 -9z" />
<path d="M9205 3111 c-18 -7 -16 -9 12 -15 35 -8 57 -1 48 15 -7 11 -32 11 -60 0z" />
<path d="M3917 2828 c-55 -51 -74 -84 -41 -71 18 7 114 104 114 115 0 17 -19 6 -73 -44z" />
<path d="M1997 2724 c-20 -20 47 -33 88 -18 13 5 14 8 3 15 -15 10 -82 12 -91 3z" />
<path d="M1803 2693 c-26 -10 -12 -23 26 -23 51 0 78 10 59 21 -14 9 -65 11 -85 2z" />
<path d="M8203 2673 c-13 -8 -23 -19 -23 -24 0 -17 27 -9 50 16 27 29 9 34 -27 8z" />
<path d="M1688 2648 c8 -8 20 -8 44 -1 l33 11 -44 1 c-34 1 -42 -2 -33 -11z" />
<path d="M8090 2585 c-13 -14 -21 -27 -18 -30 8 -9 68 29 68 43 0 20 -25 14 -50 -13z" />
<path d="M3664 2546 c-21 -30 -51 -62 -66 -73 -16 -10 -28 -24 -28 -32 0 -8 -17 -34 -37 -59 -21 -25 -57 -70 -80 -101 -96 -126 -146 -184 -244 -282 -76 -75 -191 -169 -208 -169 -4 0 -16 -9 -26 -20 -11 -12 -60 -43 -109 -71 -50 -27 -98 -54 -106 -59 -24 -16 -122 -60 -132 -60 -5 0 -31 -11 -58 -25 -27 -14 -58 -25 -68 -25 -10 0 -42 -6 -72 -14 -185 -45 -201 -47 -395 -43 -104 2 -202 7 -217 11 -32 10 -81 0 -73 -14 3 -6 19 -10 34 -10 16 0 46 -7 66 -16 68 -28 415 -48 567 -33 103 10 346 66 368 84 8 7 33 21 55 31 45 20 145 85 191 123 17 14 47 40 68 56 45 36 201 214 237 270 14 22 40 63 57 90 17 28 52 78 77 112 25 34 45 67 45 72 0 15 90 132 106 138 8 3 14 11 14 19 0 7 13 28 28 46 16 18 31 41 35 51 4 9 11 17 17 17 5 0 10 9 10 20 0 32 -14 24 -56 -34z" />
<path d="M7726 2584 c-4 -11 -1 -14 11 -12 9 2 18 9 21 16 6 18 -25 15 -32 -4z" />
<path d="M3297 2574 c-12 -13 4 -24 34 -24 20 0 29 4 27 13 -5 13 -50 22 -61 11z" />
<path d="M3370 2540 c0 -12 48 -25 58 -16 8 9 -18 26 -40 26 -10 0 -18 -4 -18 -10z" />
<path d="M7612 2520 c-23 -17 -49 -30 -56 -30 -7 0 -40 -13 -74 -30 -34 -16 -67 -30 -72 -30 -5 0 -43 -13 -84 -30 -191 -75 -638 -165 -669 -134 -4 4 4 20 16 37 12 16 34 46 49 66 88 118 95 131 75 131 -12 0 -77 -82 -77 -96 0 -3 -18 -27 -40 -53 -22 -26 -40 -55 -40 -64 0 -28 -33 -36 -161 -43 -295 -16 -643 24 -890 102 -90 28 -157 33 -125 9 11 -8 26 -15 35 -15 8 0 22 -6 30 -13 9 -8 36 -21 61 -29 25 -8 92 -31 150 -51 98 -33 186 -51 370 -76 199 -27 237 -31 314 -31 65 0 85 -3 90 -15 5 -13 10 -12 38 5 23 14 51 20 93 20 143 0 342 52 625 162 96 37 320 149 320 159 0 4 10 11 22 15 28 8 78 45 78 56 0 17 -37 6 -78 -22z" />
<path d="M7928 2446 c-18 -25 -41 -47 -50 -49 -10 -3 -18 -12 -18 -21 0 -22 9 -20 35 7 12 12 38 35 58 50 21 15 37 34 37 42 0 29 -30 14 -62 -29z" />
<path d="M8675 2436 c-83 -48 -193 -134 -266 -208 -15 -16 -32 -28 -39 -28 -13 0 -9 -22 6 -27 5 -2 29 15 53 37 24 23 64 55 90 72 25 17 60 43 78 57 18 14 55 44 82 66 72 57 69 73 -4 31z" />
<path d="M6448 2048 c-44 -47 -60 -78 -41 -78 12 0 103 104 103 118 0 21 -13 12 -62 -40z" />
<path d="M11172 2061 c-21 -13 31 -23 75 -15 24 5 31 9 21 15 -17 11 -79 11 -96 0z" />
<path d="M7530 2002 c0 -4 -18 -31 -40 -61 -22 -29 -40 -57 -40 -62 0 -20 17 -6 54 46 22 30 43 55 48 55 4 0 8 7 8 15 0 8 -7 15 -15 15 -8 0 -15 -3 -15 -8z" />
<path d="M6300 1878 c-51 -49 -70 -74 -59 -76 15 -3 149 123 149 140 0 18 -18 5 -90 -64z" />
<path d="M8483 1917 c-55 -121 -291 -327 -375 -327 -33 0 -55 -15 -33 -24 39 -14 186 26 224 62 10 9 45 37 79 61 82 58 148 166 143 234 -1 25 -26 21 -38 -6z" />
<path d="M3710 1888 c-14 -17 -66 -75 -117 -129 -78 -84 -153 -192 -153 -221 0 -19 39 -6 55 20 10 15 44 54 77 87 107 109 178 211 178 255 0 27 -10 24 -40 -12z" />
<path d="M8123 1896 c-13 -13 -23 -27 -23 -30 0 -14 23 -4 41 17 34 41 19 52 -18 13z" />
<path d="M9750 1895 c-7 -8 -20 -15 -30 -15 -14 0 -17 -5 -12 -22 4 -18 2 -20 -18 -15 -16 4 -23 1 -27 -14 -3 -11 -14 -19 -27 -19 -45 -1 -150 -117 -136 -151 19 -44 26 -43 50 7 40 82 117 143 157 125 32 -15 36 -14 29 5 -4 11 6 27 31 48 25 23 35 38 30 49 -8 21 -30 22 -47 2z" />
<path d="M3992 1868 c-17 -17 -15 -38 3 -38 12 0 35 28 35 44 0 11 -26 6 -38 -6z" />
<path d="M8850 1845 c0 -8 7 -15 15 -15 8 0 15 7 15 15 0 8 -7 15 -15 15 -8 0 -15 -7 -15 -15z" />
<path d="M7402 1820 c-35 -47 -28 -73 8 -30 29 34 38 60 22 60 -5 0 -18 -13 -30 -30z" />
<path d="M9136 1843 c-12 -12 -6 -43 9 -43 8 0 15 9 15 19 0 21 -13 34 -24 24z" />
<path d="M8060 1810 c-28 -40 -23 -45 15 -14 22 17 27 26 19 34 -9 9 -18 3 -34 -20z" />
<path d="M9362 1828 c-7 -7 -12 -16 -12 -21 0 -5 -27 -38 -60 -74 -52 -57 -58 -68 -49 -86 11 -19 14 -17 60 34 27 30 64 69 81 87 38 40 19 99 -20 60z" />
<path d="M8765 1800 c-10 -11 -28 -20 -39 -20 -26 0 -41 -10 -49 -32 -10 -27 29 -23 58 6 13 13 36 28 51 33 15 5 30 15 32 21 6 20 -34 14 -53 -8z" />
<path d="M3888 1769 c-21 -22 -37 -46 -35 -52 5 -15 47 -22 47 -8 0 6 14 26 30 44 58 67 20 81 -42 16z" />
<path d="M9901 1781 c-29 -8 -66 -54 -56 -70 4 -8 19 -1 45 19 21 16 42 30 48 30 5 0 12 7 16 15 6 16 -11 18 -53 6z" />
<path d="M4229 1758 c-1 -7 -2 -17 -3 -23 -1 -11 -32 -50 -54 -69 -60 -52 -139 -153 -128 -163 9 -9 84 44 102 72 9 14 23 25 30 25 10 0 13 7 9 23 -5 17 1 30 19 48 14 13 26 27 26 32 0 4 9 16 20 27 12 12 18 25 15 30 -9 14 -35 12 -36 -2z" />
<path d="M5553 1763 c-7 -3 -13 -12 -13 -22 0 -19 -90 -128 -132 -161 -32 -24 -37 -50 -10 -50 22 0 145 107 132 115 -15 9 -12 35 4 35 7 0 16 8 20 18 3 9 11 25 18 34 14 19 2 39 -19 31z" />
<path d="M5750 1709 c-80 -87 -102 -144 -61 -157 10 -3 12 0 8 12 -5 12 10 34 53 77 79 79 106 131 66 128 -6 0 -36 -27 -66 -60z" />
<path d="M4486 1731 c-9 -16 -22 -31 -31 -34 -8 -4 -15 -13 -15 -21 0 -9 -9 -20 -20 -26 -11 -6 -20 -15 -20 -20 0 -18 27 -10 43 13 81 111 84 117 67 117 -5 0 -16 -13 -24 -29z" />
<path d="M5212 1736 c-6 -14 -26 -35 -44 -47 -19 -12 -42 -40 -52 -63 -10 -23 -23 -51 -29 -63 -19 -42 0 -35 39 14 22 26 58 67 82 91 29 29 42 49 40 64 -4 31 -23 33 -36 4z" />
<path d="M9040 1699 c-65 -72 -75 -88 -63 -100 13 -13 148 110 148 135 0 39 -30 26 -85 -35z" />
<path d="M4710 1739 c0 -10 -21 -36 -92 -109 -38 -39 -49 -70 -25 -70 7 0 31 19 53 43 83 86 116 147 79 147 -8 0 -15 -5 -15 -11z" />
<path d="M10202 1710 c-48 -46 -52 -60 -19 -60 24 0 97 66 97 88 0 24 -37 11 -78 -28z" />
<path d="M5045 1729 c-4 -6 -4 -13 -1 -16 8 -8 36 5 36 17 0 13 -27 13 -35 -1z" />
<path d="M8620 1705 c-10 -12 -9 -16 5 -21 16 -6 34 9 35 29 0 13 -27 8 -40 -8z" />
<path d="M10930 1700 c-20 -16 -23 -22 -14 -37 16 -26 37 -27 65 -4 45 37 -4 78 -51 41z" />
<path d="M4971 1696 c-7 -8 -25 -17 -40 -21 -33 -7 -96 -69 -87 -84 4 -6 2 -19 -4 -30 -16 -31 6 -35 27 -6 31 44 107 122 126 128 9 4 17 11 17 17 0 15 -26 12 -39 -4z" />
<path d="M7313 1683 c-73 -90 -98 -134 -75 -133 19 1 82 72 82 94 0 13 7 29 15 36 8 7 15 16 15 21 0 17 -15 9 -37 -18z" />
<path d="M7980 1700 c0 -5 -13 -25 -30 -43 -16 -19 -30 -38 -30 -42 0 -4 -13 -23 -30 -42 -30 -34 -38 -53 -21 -53 14 0 69 66 90 108 11 21 27 44 35 51 20 17 20 31 1 31 -8 0 -15 -4 -15 -10z" />
<path d="M5570 1675 c-7 -9 -10 -19 -6 -22 8 -9 38 9 44 25 5 17 -23 15 -38 -3z" />
<path d="M9810 1645 c0 -10 10 -15 33 -15 l32 1 -25 14 c-32 18 -40 18 -40 0z" />
<path d="M6390 1621 c-17 -33 -12 -61 11 -61 46 0 80 39 58 66 -17 20 -57 17 -69 -5z" />
<path d="M8620 1616 c0 -12 9 -16 38 -15 27 1 30 3 12 6 -14 3 -31 10 -37 15 -10 8 -13 6 -13 -6z" />
<path d="M3895 1609 c-4 -6 -4 -13 -1 -16 8 -8 36 5 36 17 0 13 -27 13 -35 -1z" />
<path d="M4337 1569 c-31 -36 -34 -49 -9 -49 27 1 76 46 69 64 -10 24 -30 19 -60 -15z" />
<path d="M4747 1583 c-14 -13 -6 -23 17 -23 13 0 26 7 30 15 6 15 -33 22 -47 8z" />
<path d="M3716 1516 c-14 -19 -26 -39 -26 -44 0 -6 -7 -12 -15 -16 -8 -3 -15 -12 -15 -21 0 -23 15 -18 28 10 6 14 18 25 25 25 20 0 47 33 47 58 0 31 -14 27 -44 -12z" />
<path d="M3530 1520 c-12 -8 -12 -10 2 -15 20 -8 41 2 33 16 -8 11 -16 11 -35 -1z" />
<path d="M7793 1448 c-26 -28 -29 -38 -9 -38 19 0 38 26 34 45 -2 14 -7 13 -25 -7z" />
<path d="M720 1425 c0 -17 39 -60 47 -52 7 8 -26 67 -37 67 -6 0 -10 -7 -10 -15z" />
<path d="M3599 1377 c-32 -27 -65 -77 -51 -77 6 0 29 23 52 50 44 53 43 65 -1 27z" />
<path d="M7726 1359 c-10 -18 -33 -44 -50 -60 -17 -15 -28 -30 -24 -34 8 -9 58 24 58 39 1 6 14 22 30 36 31 25 39 50 17 50 -7 0 -21 -14 -31 -31z" />
<path d="M3469 1244 c-8 -9 -30 -27 -49 -39 -19 -12 -47 -33 -61 -46 -51 -47 -93 -79 -105 -79 -13 0 -28 -30 -19 -39 3 -3 14 0 23 7 9 6 35 21 57 32 22 11 58 36 80 56 84 74 125 113 125 118 0 13 -38 5 -51 -10z" />
<path d="M6933 1204 c-56 -49 -78 -84 -55 -84 15 0 82 62 82 75 0 8 8 20 18 27 10 7 22 19 26 26 15 26 -11 9 -71 -44z" />
<path d="M7574 1187 c-12 -7 -37 -24 -55 -40 -65 -52 -128 -97 -138 -97 -5 0 -22 -6 -38 -14 -54 -28 -101 -46 -120 -46 -38 0 -48 -16 -29 -45 13 -20 22 -24 39 -19 46 14 148 63 189 92 100 69 228 211 152 169z" />
<path d="M6767 1056 c-24 -19 -54 -39 -65 -45 -12 -6 -33 -22 -47 -35 -39 -36 -209 -128 -305 -166 -47 -18 -99 -38 -115 -45 -17 -7 -64 -20 -105 -30 -41 -9 -86 -21 -100 -26 -46 -16 -240 -48 -435 -71 -194 -23 -629 -14 -796 17 -42 8 -85 12 -96 9 -11 -3 -25 1 -32 10 -17 20 -105 23 -99 4 3 -7 20 -15 39 -19 19 -3 44 -11 56 -17 12 -7 46 -17 75 -23 29 -6 85 -18 123 -26 70 -14 167 -32 280 -51 265 -45 618 -29 830 38 17 5 64 19 105 30 204 58 514 226 625 339 21 23 44 41 50 41 17 0 86 80 79 91 -9 15 -20 11 -67 -25z" />
<path d="M3143 1015 c-35 -25 -140 -75 -157 -75 -8 0 -27 -7 -43 -15 -42 -22 -95 -43 -123 -48 -14 -3 -38 -10 -55 -15 -39 -13 -101 -28 -200 -47 -44 -9 -99 -20 -122 -26 -23 -5 -93 -9 -155 -9 -133 0 -208 -9 -168 -21 108 -31 523 7 675 61 11 4 47 15 80 25 60 19 81 27 143 58 19 9 38 17 44 17 20 0 148 83 148 96 0 19 -40 18 -67 -1z" />
<path d="M11300 920 c-8 -5 -12 -12 -8 -15 9 -9 48 4 48 16 0 12 -21 11 -40 -1z" />
<path d="M8980 870 c0 -6 12 -15 26 -20 14 -6 32 -17 40 -25 9 -8 24 -15 35 -15 11 0 37 -9 59 -20 22 -11 53 -20 69 -20 17 0 45 -6 63 -14 158 -66 701 -120 973 -96 66 6 172 15 235 20 63 5 135 16 159 24 24 9 64 16 90 16 53 0 83 13 56 24 -27 10 -111 7 -142 -5 -122 -49 -1052 -19 -1258 40 -43 13 -133 30 -183 35 -24 2 -51 11 -61 20 -10 9 -35 16 -58 16 -24 0 -46 6 -53 15 -14 17 -50 20 -50 5z" />
<path d="M10837 773 c-14 -13 -6 -23 17 -23 33 0 57 10 50 21 -6 10 -57 12 -67 2z" />
<path d="M4482 708 c5 -15 57 -18 61 -3 1 6 -13 11 -32 13 -24 3 -32 0 -29 -10z" />
</g>
</g></svg>